<svg xmlns="http://www.w3.org/2000/svg" viewBox="0 0 277.6 82.7" 
preserveAspectRatio="xMinYMid meet" role="img" width="200">
                        <path d="M164.3 74.8h.7V25.6h-.7v49.2m21.6-42.1h6.6v-1.4h-6.6v-3.8h6.8v-1.4h-8.3v11.8h8.4v-1.4h-6.9v-3.8m12.8 4.1c-1.6 0-2.8-1.3-2.8-2.9 0-1.6 1.1-2.9 2.8-2.9 1.6 0 2.7 1.2 2.7 2.9 0 1.6-1.1 2.9-2.7 2.9zm2.7-5.8c-.6-.8-1.6-1.2-2.8-1.2-2.2 0-4 1.8-4 4.2 0 2.4 1.8 4.2 4 4.2 1.3 0 2.2-.5 2.8-1.2v1.1h1.4V25.8h-1.4V31zm9.6 3.4c0 1.6-1 2.4-2.3 2.4-1.3 0-2.3-.7-2.3-2.4v-4.5H205v4.6c0 2.4 1.7 3.5 3.7 3.5 1.9 0 3.6-1.1 3.6-3.5v-4.6H211v4.5zm10.4 2.4l-.9-1c-.6.5-1.3.9-2.2.9-1.5 0-2.7-1.2-2.7-2.9s1.2-2.9 2.7-2.9c.9 0 1.5.3 2.1.9l.9-.9c-.7-.8-1.8-1.3-3-1.3-2.5 0-4.2 1.8-4.2 4.2 0 2.4 1.7 4.2 4.2 4.2 1.3.1 2.4-.4 3.1-1.2zm5.2-5.8c1.6 0 2.7 1.2 2.7 2.9 0 1.6-1.1 2.9-2.7 2.9s-2.8-1.3-2.8-2.9c0-1.6 1.1-2.9 2.8-2.9zm-.2 7.1c1.3 0 2.2-.5 2.8-1.2V38h1.4v-8h-1.4v1c-.6-.8-1.6-1.2-2.8-1.2-2.2 0-4 1.8-4 4.2 0 2.3 1.8 4.1 4 4.1zm7.5-3c0 2 1 3 2.8 3 1 0 1.8-.3 2.4-.8l-.6-1c-.5.3-1 .5-1.6.5-.9 0-1.5-.5-1.5-1.7v-3.9h3.4v-1.3h-3.4v-2.5H234v2.5h-1.7v1.3h1.7v3.9h-.1zm6.6 2.8h1.4v-8h-1.4v8m.7-11.8c-.5 0-1 .4-1 1 0 .5.4 1 1 1 .5 0 1-.4 1-1s-.5-1-1-1zm4.1 7.8c0-1.7 1.2-2.9 2.8-2.9 1.6 0 2.8 1.2 2.8 2.9s-1.2 2.9-2.8 2.9c-1.6 0-2.8-1.2-2.8-2.9zm7 0c0-2.4-1.8-4.2-4.2-4.2-2.4 0-4.2 1.8-4.2 4.2 0 2.4 1.8 4.2 4.2 4.2 2.4 0 4.2-1.8 4.2-4.2zm9.3 4v-5c0-1.9-1.4-3.2-3.3-3.2-.9 0-2 .3-2.6 1.2v-1h-1.4v8h1.4v-4.5c0-1.5 1.1-2.4 2.4-2.4 1.4 0 2.2.9 2.2 2.3v4.5h1.3v.1zM187.7 55c-1.6 0-2.8-1.3-2.8-2.9 0-1.6 1.1-2.9 2.8-2.9 1.6 0 2.7 1.2 2.7 2.9.1 1.6-1.1 2.9-2.7 2.9zm2.7-5.8c-.6-.8-1.6-1.2-2.8-1.2-2.2 0-4 1.8-4 4.2 0 2.4 1.8 4.2 4 4.2 1.3 0 2.2-.5 2.8-1.2v1.1h1.4v-8h-1.4v.9zm7.6-1.3c-.9 0-2 .3-2.6 1.2v-1H194v8h1.4v-4.5c0-1.5 1.1-2.4 2.4-2.4 1.4 0 2.2.9 2.2 2.3V56h1.4v-5c-.1-1.8-1.4-3.1-3.4-3.1zm9 7.1c-1.6 0-2.8-1.3-2.8-2.9 0-1.6 1.1-2.9 2.8-2.9 1.6 0 2.7 1.2 2.7 2.9.1 1.6-1 2.9-2.7 2.9zm2.7-5.8c-.6-.8-1.6-1.2-2.8-1.2-2.2 0-4 1.8-4 4.2 0 2.4 1.8 4.2 4 4.2 1.3 0 2.2-.5 2.8-1.2v1.1h1.4V44h-1.4v5.2zm6.7-3.5h4v10.4h1.5V45.7h4v-1.4h-9.5v1.4m10.9 3.4V48H226v8h1.4v-4.5c0-1.5.9-2.4 2.1-2.4.5 0 1 .1 1.4.3l.3-1.4c-.4-.2-.9-.3-1.5-.3-1 .2-1.8.7-2.4 1.4zm8.6 5.9c-1.6 0-2.8-1.3-2.8-2.9 0-1.6 1.1-2.9 2.8-2.9 1.6 0 2.7 1.2 2.7 2.9.1 1.6-1 2.9-2.7 2.9zm2.7-5.8c-.6-.8-1.6-1.2-2.8-1.2-2.2 0-4 1.8-4 4.2 0 2.4 1.8 4.2 4 4.2 1.3 0 2.2-.5 2.8-1.2v1.1h1.4v-8h-1.4v.9zm4.6-4.9c-.5 0-1 .4-1 1 0 .5.4 1 1 1 .5 0 1-.4 1-1s-.4-1-1-1zm-.6 11.8h1.3v-8h-1.3v8m7.9-8.2c-.9 0-2 .3-2.6 1.2v-1h-1.4v8h1.4v-4.5c0-1.5 1.1-2.4 2.4-2.4 1.4 0 2.2.9 2.2 2.3V56h1.4v-5c-.1-1.8-1.4-3.1-3.4-3.1zm6.5-3.6c-.5 0-1 .4-1 1 0 .5.4 1 1 1 .5 0 1-.4 1-1s-.5-1-1-1zm-.7 11.8h1.4v-8h-1.4v8m8-8.2c-.9 0-2 .3-2.6 1.2v-1h-1.4v8h1.4v-4.5c0-1.5 1.1-2.4 2.4-2.4 1.4 0 2.2.9 2.2 2.3V56h1.4v-5c-.1-1.8-1.5-3.1-3.4-3.1zm9.3 6.9c-1.6 0-2.7-1.3-2.7-2.8 0-1.5 1.1-2.8 2.7-2.8s2.7 1.2 2.7 2.8c0 1.6-1.1 2.8-2.7 2.8zm2.6-6.7v1.1c-.6-.8-1.5-1.3-2.8-1.3-2.2 0-4 1.7-4 4.1 0 2.4 1.7 4.1 4 4.1 1.2 0 2.1-.5 2.8-1.2v.7c0 1.8-1.2 2.7-2.9 2.7-1 0-2-.3-2.8-.9l-.6 1.1c.8.7 2.1 1 3.4 1 2.5 0 4.3-1.5 4.3-4.1V48h-1.4v.1zM66.7 44.6h5.1m16.4-19c-5.6 0-10.1 4.2-10.1 9.7 0 5.5 4.5 9.7 10.1 9.7s10.1-4.2 10.1-9.7c0-5.5-4.5-9.7-10.1-9.7zm0 14.4c-2.6 0-4.7-2.1-4.7-4.7s2.1-4.7 4.7-4.7 4.7 2.1 4.7 4.7-2.2 4.7-4.7 4.7zm28.3-7.2c0-3.9-3.1-6.8-7.1-6.8h-8.6v18.6h5.1v-5.1h2.4l2.3 5.1h5.8l-3.2-6.3c1.8-1.2 3.3-3 3.3-5.5zm-7.1 2.2H106v-4.4h3.4c1.2 0 1.9 1.3 1.9 2.2 0 .9-.8 2.2-1.9 2.2zm10.2-9h5.1v18.6h-5.1zm17.7 0h-1.9l-8.6 18.6h5.5l.9-2.1h6.4l.9 2.1h5.5L137.3 26zm-2.6 12.1l1.6-3.6h.1l1.6 3.6h-3.3zM64.6 26l12-26H0l12.1 26.2h5.7l4.6 10 4.6-10h5.7l-8.5 18.3h-3.6l17.7 38.2 18.1-39.1c-1.4.8-3 1.3-4.8 1.3-5.5 0-9.8-4.1-9.8-9.6 0-5.4 4.3-9.6 9.8-9.6 3.5 0 6.5 1.9 8.2 4.7L55.6 33c-.8-1.3-2.3-2.2-3.9-2.2-2.5 0-4.6 2.1-4.6 4.6 0 2.5 2.1 4.6 4.6 4.6 1.7 0 3.1-.9 3.9-2.2l2.8 1.7 4.1-8.8h4.2v14.1h5.1V30.6H77V26H64.6zM39.5 44.5h-5.2V26.2h5.2v18.3zm27.2.1h5.1m.7 10c-.7-.5-1.6-.8-2.6-.8s-1.8.4-1.8 1.1c0 .7.8.9 1.9 1.1l.5.1c1.7.3 3 1 3 2.6 0 2.1-1.8 3-3.8 3-1.4 0-2.9-.4-3.9-1.2l1-1.5c.7.5 1.8 1 3 1 1 0 1.8-.4 1.8-1.1 0-.6-.7-.9-2-1.1l-.6-.1c-1.6-.3-2.8-1-2.8-2.7 0-1.9 1.7-3 3.7-3 1.3 0 2.4.3 3.6 1l-1 1.6zm6.9 2.1H77V59c0 .8.4 1.1 1 1.1.4 0 .9-.2 1.2-.4l.6 1.4c-.6.4-1.2.7-2.1.7-1.6 0-2.4-.9-2.4-2.6v-2.5H74v-1.5h1.2v-1.9H77v1.9h2.3v1.5zm2.5 1.6c0 1 .6 1.8 1.7 1.8 1 0 1.7-.8 1.7-1.8s-.7-1.8-1.7-1.8c-1 .1-1.7.9-1.7 1.8m5 3.3h-1.7v-.7c-.4.5-1 .9-1.9.9-1.8 0-3.1-1.5-3.1-3.4s1.3-3.4 3.1-3.4c.9 0 1.5.4 1.9.9v-.7h1.7v6.4zm6.2-4.9h-2.3V59c0 .8.4 1.1 1 1.1.4 0 .9-.2 1.2-.4l.6 1.4c-.6.4-1.2.7-2.1.7-1.6 0-2.4-.9-2.4-2.6v-2.5h-1.2v-1.5h1.2v-1.9h1.7v1.9h2.3v1.5zm2.6 1h2.9c-.2-.8-.7-1.3-1.4-1.3-.8 0-1.3.5-1.5 1.3m4.6.6v.6h-4.6c.2.9.8 1.3 1.7 1.3.6 0 1.2-.2 1.6-.6l1 1.1c-.7.7-1.7 1-2.8 1-2 0-3.4-1.3-3.4-3.4 0-2 1.3-3.4 3.3-3.4 2 .1 3.2 1.4 3.2 3.4m-26.1 7.2l-1.3 1.3c-.5-.6-1.3-1-2.3-1-1.7 0-2.9 1.3-2.9 3.1 0 1.9 1.3 3.1 2.9 3.1 1.5 0 2.4-.7 2.7-2.1h-2.4v-1.6h4.3v.5c0 2.8-1.9 4.8-4.6 4.8-2.6 0-4.9-1.8-4.9-4.8 0-2.8 2.1-4.8 4.9-4.8 1.6.1 2.8.6 3.6 1.5m3.7 4.8c0 1 .7 1.8 1.7 1.8s1.7-.7 1.7-1.8c0-1-.7-1.8-1.7-1.8-1 .1-1.7.8-1.7 1.8m5.2 0c0 1.9-1.5 3.4-3.5 3.4s-3.5-1.5-3.5-3.4 1.5-3.4 3.5-3.4 3.5 1.5 3.5 3.4m4.7 3.3h-2l-2.6-6.5h1.9l1.7 4.6 1.7-4.6h1.8m2 2.6h2.9c-.2-.8-.7-1.3-1.4-1.3-.9 0-1.4.5-1.5 1.3m4.6.6v.6h-4.6c.2.9.8 1.3 1.7 1.3.6 0 1.2-.2 1.6-.6l1 1.1c-.7.7-1.7 1-2.8 1-2 0-3.4-1.3-3.4-3.4 0-2 1.3-3.4 3.3-3.4 1.9 0 3.2 1.4 3.2 3.4m5.6-3.2l-.3 1.7c-.3-.1-.7-.2-1.1-.2-.8 0-1.4.5-1.4 1.5v3.5H98v-6.5h1.7v.7c.4-.6 1-.9 1.8-.9.4 0 .7.1 1 .2m7 2.4v4.1h-1.7V70c0-.9-.5-1.4-1.3-1.4-.7 0-1.4.5-1.4 1.5v3.5h-1.7v-6.5h1.7v.8c.5-.7 1.2-.9 1.9-.9 1.4-.1 2.5 1 2.5 2.5m11.9 0v4.1h-1.7V70c0-.9-.5-1.4-1.3-1.4-.7 0-1.4.5-1.4 1.5v3.5h-1.7V70c0-.9-.5-1.4-1.3-1.4-.7 0-1.4.5-1.4 1.5v3.5H111v-6.5h1.7v.8c.5-.7 1.2-.9 1.9-.9.9 0 1.7.4 2.1 1.1.5-.8 1.3-1.1 2.2-1.1 1.5-.1 2.5 1 2.5 2.5m2.9.2h2.9c-.2-.8-.7-1.3-1.4-1.3-.8 0-1.3.5-1.5 1.3m4.6.6v.6h-4.6c.2.9.8 1.3 1.7 1.3.6 0 1.2-.2 1.6-.6l1 1.1c-.7.7-1.7 1-2.8 1-2 0-3.4-1.3-3.4-3.4 0-2 1.3-3.4 3.3-3.4 2 0 3.2 1.4 3.2 3.4m7.3-.8v4.1h-1.7V70c0-.9-.5-1.4-1.3-1.4-.7 0-1.4.5-1.4 1.5v3.5h-1.7v-6.5h1.7v.8c.5-.7 1.2-.9 1.9-.9 1.5-.1 2.5 1 2.5 2.5m6.1-.8H140V71c0 .8.4 1.1 1 1.1.4 0 .9-.2 1.2-.4l.6 1.4c-.6.4-1.2.7-2.1.7-1.6 0-2.4-.9-2.4-2.6v-2.5H137v-1.5h1.2v-1.9h1.7v1.9h2.3v1.5z" fill="#ffffff" />
                    </svg>