<svg xmlns="http://www.w3.org/2000/svg" width="45.631" height="53.355" viewBox="0 0 45.631 53.355"><path id="Icon_simple-graphcool" data-name="Icon simple-graphcool" d="M45.736,17.627c-2.594-1.461-5.854.445-6.376.774l-11.2,6.352a4.376,4.376,0,1,0,1.583,2.661l11.167-6.338.071-.042c.734-.465,2.437-1.158,3.232-.709.574.325.9,1.407.927,3h-.013V37.333A3.67,3.67,0,0,1,43.3,40.5L27.244,49.779a3.67,3.67,0,0,1-3.659,0L7.529,40.5a3.67,3.67,0,0,1-1.83-3.17V18.792a3.664,3.664,0,0,1,1.83-3.168L22.06,7.238a4.369,4.369,0,1,0-1.074-2.952L6,12.945a6.757,6.757,0,0,0-3.388,5.847V37.329a6.758,6.758,0,0,0,3.377,5.849l16.053,9.275a6.768,6.768,0,0,0,6.752,0l16.056-9.275a6.77,6.77,0,0,0,3.377-5.845V23.857h.011c.076-3.161-.771-5.253-2.5-6.229Z" transform="translate(-2.607 0)" fill="#ec683b"></path></svg>